<?xml version="1.0" encoding="UTF-8" standalone="no"?>
<!-- Created with Inkscape (http://www.inkscape.org/) -->

<svg
   xmlns:dc="http://purl.org/dc/elements/1.1/"
   xmlns:cc="http://creativecommons.org/ns#"
   xmlns:rdf="http://www.w3.org/1999/02/22-rdf-syntax-ns#"
   xmlns:svg="http://www.w3.org/2000/svg"
   xmlns="http://www.w3.org/2000/svg"
   xmlns:xlink="http://www.w3.org/1999/xlink"
   xmlns:sodipodi="http://sodipodi.sourceforge.net/DTD/sodipodi-0.dtd"
   xmlns:inkscape="http://www.inkscape.org/namespaces/inkscape"
   width="210mm"
   height="297mm"
   viewBox="0 0 210 297"
   version="1.1"
   id="svg3631"
   inkscape:version="0.92.4 (5da689c313, 2019-01-14)"
   sodipodi:docname="ornamental text divider 4.svg">
  <defs
     id="defs3625">
    <clipPath
       clipPathUnits="userSpaceOnUse"
       id="clipPath18">
      <path
         d="M 0,600.949 H 847.559 V 0 H 0 Z"
         id="path16"
         inkscape:connector-curvature="0" />
    </clipPath>
    <linearGradient
       id="a"
       x1="104.73"
       x2="494.51999"
       y1="335.72"
       y2="895.84003"
       gradientUnits="userSpaceOnUse">
      <stop
         stop-color="#e00"
         offset="0"
         id="stop2" />
      <stop
         stop-color="#9a0000"
         offset="1"
         id="stop4" />
    </linearGradient>
    <clipPath
       id="a-4">
      <use
         overflow="visible"
         xlink:href="#e"
         id="use12" />
    </clipPath>
    <clipPath
       id="clipPath2004">
      <use
         overflow="visible"
         xlink:href="#e"
         id="use2002" />
    </clipPath>
    <clipPath
       id="clipPath2008">
      <use
         overflow="visible"
         xlink:href="#e"
         id="use2006" />
    </clipPath>
    <clipPath
       id="clipPath2012">
      <use
         overflow="visible"
         xlink:href="#e"
         id="use2010" />
    </clipPath>
    <clipPath
       id="clipPath2016">
      <use
         overflow="visible"
         xlink:href="#e"
         id="use2014" />
    </clipPath>
    <clipPath
       id="clipPath2020">
      <use
         overflow="visible"
         xlink:href="#e"
         id="use2018" />
    </clipPath>
    <clipPath
       id="clipPath2024">
      <use
         overflow="visible"
         xlink:href="#e"
         id="use2022" />
    </clipPath>
    <clipPath
       id="clipPath2028">
      <use
         overflow="visible"
         xlink:href="#e"
         id="use2026" />
    </clipPath>
    <clipPath
       id="clipPath2032">
      <use
         overflow="visible"
         xlink:href="#e"
         id="use2030" />
    </clipPath>
    <clipPath
       id="clipPath2036">
      <use
         overflow="visible"
         xlink:href="#e"
         id="use2034" />
    </clipPath>
    <clipPath
       id="clipPath2040">
      <use
         overflow="visible"
         xlink:href="#e"
         id="use2038" />
    </clipPath>
    <clipPath
       id="clipPath2044">
      <use
         overflow="visible"
         xlink:href="#e"
         id="use2042" />
    </clipPath>
    <clipPath
       id="clipPath2048">
      <use
         overflow="visible"
         xlink:href="#e"
         id="use2046" />
    </clipPath>
    <clipPath
       id="clipPath2052">
      <use
         overflow="visible"
         xlink:href="#e"
         id="use2050" />
    </clipPath>
    <clipPath
       id="clipPath2056">
      <use
         overflow="visible"
         xlink:href="#e"
         id="use2054" />
    </clipPath>
    <clipPath
       id="clipPath2060">
      <use
         overflow="visible"
         xlink:href="#e"
         id="use2058" />
    </clipPath>
    <clipPath
       id="clipPath2064">
      <use
         overflow="visible"
         xlink:href="#e"
         id="use2062" />
    </clipPath>
    <clipPath
       id="clipPath2068">
      <use
         overflow="visible"
         xlink:href="#e"
         id="use2066" />
    </clipPath>
    <clipPath
       id="clipPath2072">
      <use
         overflow="visible"
         xlink:href="#e"
         id="use2070" />
    </clipPath>
    <clipPath
       id="clipPath2076">
      <use
         overflow="visible"
         xlink:href="#e"
         id="use2074" />
    </clipPath>
    <clipPath
       id="clipPath2080">
      <use
         overflow="visible"
         xlink:href="#e"
         id="use2078" />
    </clipPath>
    <clipPath
       id="clipPath2084">
      <use
         overflow="visible"
         xlink:href="#e"
         id="use2082" />
    </clipPath>
    <clipPath
       id="clipPath2088">
      <use
         overflow="visible"
         xlink:href="#e"
         id="use2086" />
    </clipPath>
    <clipPath
       id="clipPath2092">
      <use
         overflow="visible"
         xlink:href="#e"
         id="use2090" />
    </clipPath>
    <clipPath
       id="clipPath2096">
      <use
         overflow="visible"
         xlink:href="#e"
         id="use2094" />
    </clipPath>
    <clipPath
       id="clipPath2100">
      <use
         overflow="visible"
         xlink:href="#e"
         id="use2098" />
    </clipPath>
    <clipPath
       id="clipPath2104">
      <use
         overflow="visible"
         xlink:href="#e"
         id="use2102" />
    </clipPath>
    <clipPath
       id="clipPath2108">
      <use
         overflow="visible"
         xlink:href="#e"
         id="use2106" />
    </clipPath>
    <clipPath
       id="clipPath2112">
      <use
         overflow="visible"
         xlink:href="#e"
         id="use2110" />
    </clipPath>
    <clipPath
       id="clipPath2116">
      <use
         overflow="visible"
         xlink:href="#e"
         id="use2114" />
    </clipPath>
    <clipPath
       id="clipPath2120">
      <use
         overflow="visible"
         xlink:href="#e"
         id="use2118" />
    </clipPath>
    <clipPath
       id="clipPath2124">
      <use
         overflow="visible"
         xlink:href="#e"
         id="use2122" />
    </clipPath>
    <clipPath
       id="clipPath2128">
      <use
         overflow="visible"
         xlink:href="#e"
         id="use2126" />
    </clipPath>
    <clipPath
       id="clipPath2132">
      <use
         overflow="visible"
         xlink:href="#e"
         id="use2130" />
    </clipPath>
    <clipPath
       id="a-1">
      <use
         overflow="visible"
         xlink:href="#e"
         id="use12-4" />
    </clipPath>
    <clipPath
       id="clipPath2004-8">
      <use
         overflow="visible"
         xlink:href="#e"
         id="use2002-6" />
    </clipPath>
    <clipPath
       id="clipPath2008-0">
      <use
         overflow="visible"
         xlink:href="#e"
         id="use2006-5" />
    </clipPath>
    <clipPath
       id="clipPath2012-3">
      <use
         overflow="visible"
         xlink:href="#e"
         id="use2010-5" />
    </clipPath>
    <clipPath
       id="clipPath2016-3">
      <use
         overflow="visible"
         xlink:href="#e"
         id="use2014-2" />
    </clipPath>
    <clipPath
       id="clipPath2020-4">
      <use
         overflow="visible"
         xlink:href="#e"
         id="use2018-5" />
    </clipPath>
    <clipPath
       id="clipPath2024-9">
      <use
         overflow="visible"
         xlink:href="#e"
         id="use2022-9" />
    </clipPath>
    <clipPath
       id="clipPath2028-1">
      <use
         overflow="visible"
         xlink:href="#e"
         id="use2026-9" />
    </clipPath>
    <clipPath
       id="clipPath2032-1">
      <use
         overflow="visible"
         xlink:href="#e"
         id="use2030-2" />
    </clipPath>
    <clipPath
       id="clipPath2036-1">
      <use
         overflow="visible"
         xlink:href="#e"
         id="use2034-3" />
    </clipPath>
    <clipPath
       id="clipPath2040-3">
      <use
         overflow="visible"
         xlink:href="#e"
         id="use2038-6" />
    </clipPath>
    <clipPath
       id="clipPath2044-0">
      <use
         overflow="visible"
         xlink:href="#e"
         id="use2042-5" />
    </clipPath>
    <clipPath
       id="clipPath2048-1">
      <use
         overflow="visible"
         xlink:href="#e"
         id="use2046-4" />
    </clipPath>
    <clipPath
       id="clipPath2052-7">
      <use
         overflow="visible"
         xlink:href="#e"
         id="use2050-6" />
    </clipPath>
    <clipPath
       id="clipPath2056-3">
      <use
         overflow="visible"
         xlink:href="#e"
         id="use2054-3" />
    </clipPath>
    <clipPath
       id="clipPath2060-5">
      <use
         overflow="visible"
         xlink:href="#e"
         id="use2058-1" />
    </clipPath>
    <clipPath
       id="clipPath2064-9">
      <use
         overflow="visible"
         xlink:href="#e"
         id="use2062-3" />
    </clipPath>
    <clipPath
       id="clipPath2068-4">
      <use
         overflow="visible"
         xlink:href="#e"
         id="use2066-6" />
    </clipPath>
    <clipPath
       id="clipPath2072-2">
      <use
         overflow="visible"
         xlink:href="#e"
         id="use2070-9" />
    </clipPath>
    <clipPath
       id="clipPath2076-4">
      <use
         overflow="visible"
         xlink:href="#e"
         id="use2074-6" />
    </clipPath>
    <clipPath
       id="clipPath2080-7">
      <use
         overflow="visible"
         xlink:href="#e"
         id="use2078-4" />
    </clipPath>
    <clipPath
       id="clipPath2084-2">
      <use
         overflow="visible"
         xlink:href="#e"
         id="use2082-3" />
    </clipPath>
    <clipPath
       id="clipPath2088-3">
      <use
         overflow="visible"
         xlink:href="#e"
         id="use2086-4" />
    </clipPath>
    <clipPath
       id="clipPath2092-8">
      <use
         overflow="visible"
         xlink:href="#e"
         id="use2090-5" />
    </clipPath>
    <clipPath
       id="clipPath2096-6">
      <use
         overflow="visible"
         xlink:href="#e"
         id="use2094-0" />
    </clipPath>
    <clipPath
       id="clipPath2100-4">
      <use
         overflow="visible"
         xlink:href="#e"
         id="use2098-4" />
    </clipPath>
    <clipPath
       id="clipPath2104-8">
      <use
         overflow="visible"
         xlink:href="#e"
         id="use2102-9" />
    </clipPath>
    <clipPath
       id="clipPath2108-7">
      <use
         overflow="visible"
         xlink:href="#e"
         id="use2106-3" />
    </clipPath>
    <clipPath
       id="clipPath2112-1">
      <use
         overflow="visible"
         xlink:href="#e"
         id="use2110-0" />
    </clipPath>
    <clipPath
       id="clipPath2116-9">
      <use
         overflow="visible"
         xlink:href="#e"
         id="use2114-8" />
    </clipPath>
    <clipPath
       id="clipPath2120-9">
      <use
         overflow="visible"
         xlink:href="#e"
         id="use2118-3" />
    </clipPath>
    <clipPath
       id="clipPath2124-6">
      <use
         overflow="visible"
         xlink:href="#e"
         id="use2122-9" />
    </clipPath>
    <clipPath
       id="clipPath2128-5">
      <use
         overflow="visible"
         xlink:href="#e"
         id="use2126-0" />
    </clipPath>
    <clipPath
       id="clipPath2132-4">
      <use
         overflow="visible"
         xlink:href="#e"
         id="use2130-9" />
    </clipPath>
    <clipPath
       id="a-9">
      <use
         overflow="visible"
         xlink:href="#e"
         id="use12-6" />
    </clipPath>
    <clipPath
       id="clipPath2885">
      <use
         overflow="visible"
         xlink:href="#e"
         id="use2883" />
    </clipPath>
    <clipPath
       id="clipPath2889">
      <use
         overflow="visible"
         xlink:href="#e"
         id="use2887" />
    </clipPath>
    <clipPath
       id="clipPath2893">
      <use
         overflow="visible"
         xlink:href="#e"
         id="use2891" />
    </clipPath>
    <clipPath
       id="clipPath2897">
      <use
         overflow="visible"
         xlink:href="#e"
         id="use2895" />
    </clipPath>
    <clipPath
       id="clipPath2901">
      <use
         overflow="visible"
         xlink:href="#e"
         id="use2899" />
    </clipPath>
    <clipPath
       id="clipPath2905">
      <use
         overflow="visible"
         xlink:href="#e"
         id="use2903" />
    </clipPath>
    <clipPath
       id="clipPath2909">
      <use
         overflow="visible"
         xlink:href="#e"
         id="use2907" />
    </clipPath>
    <clipPath
       id="clipPath2913">
      <use
         overflow="visible"
         xlink:href="#e"
         id="use2911" />
    </clipPath>
    <clipPath
       id="clipPath2917">
      <use
         overflow="visible"
         xlink:href="#e"
         id="use2915" />
    </clipPath>
    <clipPath
       id="clipPath2921">
      <use
         overflow="visible"
         xlink:href="#e"
         id="use2919" />
    </clipPath>
    <clipPath
       id="clipPath2925">
      <use
         overflow="visible"
         xlink:href="#e"
         id="use2923" />
    </clipPath>
    <clipPath
       id="clipPath2929">
      <use
         overflow="visible"
         xlink:href="#e"
         id="use2927" />
    </clipPath>
    <clipPath
       id="clipPath2933">
      <use
         overflow="visible"
         xlink:href="#e"
         id="use2931" />
    </clipPath>
    <clipPath
       id="clipPath2937">
      <use
         overflow="visible"
         xlink:href="#e"
         id="use2935" />
    </clipPath>
    <clipPath
       id="clipPath2941">
      <use
         overflow="visible"
         xlink:href="#e"
         id="use2939" />
    </clipPath>
    <clipPath
       id="clipPath2945">
      <use
         overflow="visible"
         xlink:href="#e"
         id="use2943" />
    </clipPath>
    <clipPath
       id="clipPath2949">
      <use
         overflow="visible"
         xlink:href="#e"
         id="use2947" />
    </clipPath>
    <clipPath
       id="clipPath2953">
      <use
         overflow="visible"
         xlink:href="#e"
         id="use2951" />
    </clipPath>
    <clipPath
       id="clipPath2957">
      <use
         overflow="visible"
         xlink:href="#e"
         id="use2955" />
    </clipPath>
    <clipPath
       id="clipPath2961">
      <use
         overflow="visible"
         xlink:href="#e"
         id="use2959" />
    </clipPath>
    <clipPath
       id="clipPath2965">
      <use
         overflow="visible"
         xlink:href="#e"
         id="use2963" />
    </clipPath>
    <clipPath
       id="clipPath2969">
      <use
         overflow="visible"
         xlink:href="#e"
         id="use2967" />
    </clipPath>
    <clipPath
       id="clipPath2973">
      <use
         overflow="visible"
         xlink:href="#e"
         id="use2971" />
    </clipPath>
    <clipPath
       id="clipPath2977">
      <use
         overflow="visible"
         xlink:href="#e"
         id="use2975" />
    </clipPath>
    <clipPath
       id="clipPath2981">
      <use
         overflow="visible"
         xlink:href="#e"
         id="use2979" />
    </clipPath>
    <clipPath
       id="clipPath2985">
      <use
         overflow="visible"
         xlink:href="#e"
         id="use2983" />
    </clipPath>
    <clipPath
       id="clipPath2989">
      <use
         overflow="visible"
         xlink:href="#e"
         id="use2987" />
    </clipPath>
    <clipPath
       id="clipPath2993">
      <use
         overflow="visible"
         xlink:href="#e"
         id="use2991" />
    </clipPath>
    <clipPath
       id="clipPath2997">
      <use
         overflow="visible"
         xlink:href="#e"
         id="use2995" />
    </clipPath>
    <clipPath
       id="clipPath3001">
      <use
         overflow="visible"
         xlink:href="#e"
         id="use2999" />
    </clipPath>
    <clipPath
       id="clipPath3005">
      <use
         overflow="visible"
         xlink:href="#e"
         id="use3003" />
    </clipPath>
    <clipPath
       id="clipPath3009">
      <use
         overflow="visible"
         xlink:href="#e"
         id="use3007" />
    </clipPath>
    <clipPath
       id="clipPath3013">
      <use
         overflow="visible"
         xlink:href="#e"
         id="use3011" />
    </clipPath>
    <clipPath
       id="a-0">
      <use
         overflow="visible"
         xlink:href="#e"
         id="use12-1" />
    </clipPath>
    <clipPath
       id="clipPath3061">
      <use
         overflow="visible"
         xlink:href="#e"
         id="use3059" />
    </clipPath>
    <clipPath
       id="clipPath3065">
      <use
         overflow="visible"
         xlink:href="#e"
         id="use3063" />
    </clipPath>
    <clipPath
       id="clipPath3069">
      <use
         overflow="visible"
         xlink:href="#e"
         id="use3067" />
    </clipPath>
    <clipPath
       id="clipPath3073">
      <use
         overflow="visible"
         xlink:href="#e"
         id="use3071" />
    </clipPath>
    <clipPath
       id="clipPath3077">
      <use
         overflow="visible"
         xlink:href="#e"
         id="use3075" />
    </clipPath>
    <clipPath
       id="clipPath3081">
      <use
         overflow="visible"
         xlink:href="#e"
         id="use3079" />
    </clipPath>
    <clipPath
       id="clipPath3085">
      <use
         overflow="visible"
         xlink:href="#e"
         id="use3083" />
    </clipPath>
    <clipPath
       id="clipPath3089">
      <use
         overflow="visible"
         xlink:href="#e"
         id="use3087" />
    </clipPath>
    <clipPath
       id="clipPath3093">
      <use
         overflow="visible"
         xlink:href="#e"
         id="use3091" />
    </clipPath>
    <clipPath
       id="clipPath3097">
      <use
         overflow="visible"
         xlink:href="#e"
         id="use3095" />
    </clipPath>
    <clipPath
       id="clipPath3101">
      <use
         overflow="visible"
         xlink:href="#e"
         id="use3099" />
    </clipPath>
    <clipPath
       id="clipPath3105">
      <use
         overflow="visible"
         xlink:href="#e"
         id="use3103" />
    </clipPath>
    <clipPath
       id="clipPath3109">
      <use
         overflow="visible"
         xlink:href="#e"
         id="use3107" />
    </clipPath>
    <clipPath
       id="clipPath3113">
      <use
         overflow="visible"
         xlink:href="#e"
         id="use3111" />
    </clipPath>
    <clipPath
       id="clipPath3117">
      <use
         overflow="visible"
         xlink:href="#e"
         id="use3115" />
    </clipPath>
    <clipPath
       id="clipPath3121">
      <use
         overflow="visible"
         xlink:href="#e"
         id="use3119" />
    </clipPath>
    <clipPath
       id="clipPath3125">
      <use
         overflow="visible"
         xlink:href="#e"
         id="use3123" />
    </clipPath>
    <clipPath
       id="clipPath3129">
      <use
         overflow="visible"
         xlink:href="#e"
         id="use3127" />
    </clipPath>
    <clipPath
       id="clipPath3133">
      <use
         overflow="visible"
         xlink:href="#e"
         id="use3131" />
    </clipPath>
    <clipPath
       id="clipPath3137">
      <use
         overflow="visible"
         xlink:href="#e"
         id="use3135" />
    </clipPath>
    <clipPath
       id="clipPath3141">
      <use
         overflow="visible"
         xlink:href="#e"
         id="use3139" />
    </clipPath>
    <clipPath
       id="clipPath3145">
      <use
         overflow="visible"
         xlink:href="#e"
         id="use3143" />
    </clipPath>
    <clipPath
       id="clipPath3149">
      <use
         overflow="visible"
         xlink:href="#e"
         id="use3147" />
    </clipPath>
    <clipPath
       id="clipPath3153">
      <use
         overflow="visible"
         xlink:href="#e"
         id="use3151" />
    </clipPath>
    <clipPath
       id="clipPath3157">
      <use
         overflow="visible"
         xlink:href="#e"
         id="use3155" />
    </clipPath>
    <clipPath
       id="clipPath3161">
      <use
         overflow="visible"
         xlink:href="#e"
         id="use3159" />
    </clipPath>
    <clipPath
       id="clipPath3165">
      <use
         overflow="visible"
         xlink:href="#e"
         id="use3163" />
    </clipPath>
    <clipPath
       id="clipPath3169">
      <use
         overflow="visible"
         xlink:href="#e"
         id="use3167" />
    </clipPath>
    <clipPath
       id="clipPath3173">
      <use
         overflow="visible"
         xlink:href="#e"
         id="use3171" />
    </clipPath>
    <clipPath
       id="clipPath3177">
      <use
         overflow="visible"
         xlink:href="#e"
         id="use3175" />
    </clipPath>
    <clipPath
       id="clipPath3181">
      <use
         overflow="visible"
         xlink:href="#e"
         id="use3179" />
    </clipPath>
    <clipPath
       id="clipPath3185">
      <use
         overflow="visible"
         xlink:href="#e"
         id="use3183" />
    </clipPath>
    <clipPath
       id="clipPath3189">
      <use
         overflow="visible"
         xlink:href="#e"
         id="use3187" />
    </clipPath>
    <clipPath
       id="a-7">
      <use
         overflow="visible"
         xlink:href="#e"
         id="use12-2" />
    </clipPath>
    <clipPath
       id="clipPath4117">
      <use
         overflow="visible"
         xlink:href="#e"
         id="use4115" />
    </clipPath>
    <clipPath
       id="clipPath4121">
      <use
         overflow="visible"
         xlink:href="#e"
         id="use4119" />
    </clipPath>
    <clipPath
       id="clipPath4125">
      <use
         overflow="visible"
         xlink:href="#e"
         id="use4123" />
    </clipPath>
    <clipPath
       id="clipPath4129">
      <use
         overflow="visible"
         xlink:href="#e"
         id="use4127" />
    </clipPath>
    <clipPath
       id="clipPath4133">
      <use
         overflow="visible"
         xlink:href="#e"
         id="use4131" />
    </clipPath>
    <clipPath
       id="clipPath4137">
      <use
         overflow="visible"
         xlink:href="#e"
         id="use4135" />
    </clipPath>
    <clipPath
       id="clipPath4141">
      <use
         overflow="visible"
         xlink:href="#e"
         id="use4139" />
    </clipPath>
    <clipPath
       id="clipPath4145">
      <use
         overflow="visible"
         xlink:href="#e"
         id="use4143" />
    </clipPath>
    <clipPath
       id="clipPath4149">
      <use
         overflow="visible"
         xlink:href="#e"
         id="use4147" />
    </clipPath>
    <clipPath
       id="clipPath4153">
      <use
         overflow="visible"
         xlink:href="#e"
         id="use4151" />
    </clipPath>
    <clipPath
       id="clipPath4157">
      <use
         overflow="visible"
         xlink:href="#e"
         id="use4155" />
    </clipPath>
    <clipPath
       id="clipPath4161">
      <use
         overflow="visible"
         xlink:href="#e"
         id="use4159" />
    </clipPath>
    <clipPath
       id="clipPath4165">
      <use
         overflow="visible"
         xlink:href="#e"
         id="use4163" />
    </clipPath>
    <clipPath
       id="clipPath4169">
      <use
         overflow="visible"
         xlink:href="#e"
         id="use4167" />
    </clipPath>
    <clipPath
       id="clipPath4173">
      <use
         overflow="visible"
         xlink:href="#e"
         id="use4171" />
    </clipPath>
    <clipPath
       id="clipPath4177">
      <use
         overflow="visible"
         xlink:href="#e"
         id="use4175" />
    </clipPath>
    <clipPath
       id="clipPath4181">
      <use
         overflow="visible"
         xlink:href="#e"
         id="use4179" />
    </clipPath>
    <clipPath
       id="clipPath4185">
      <use
         overflow="visible"
         xlink:href="#e"
         id="use4183" />
    </clipPath>
    <clipPath
       id="clipPath4189">
      <use
         overflow="visible"
         xlink:href="#e"
         id="use4187" />
    </clipPath>
    <clipPath
       id="clipPath4193">
      <use
         overflow="visible"
         xlink:href="#e"
         id="use4191" />
    </clipPath>
    <clipPath
       id="clipPath4197">
      <use
         overflow="visible"
         xlink:href="#e"
         id="use4195" />
    </clipPath>
    <clipPath
       id="clipPath4201">
      <use
         overflow="visible"
         xlink:href="#e"
         id="use4199" />
    </clipPath>
    <clipPath
       id="clipPath4205">
      <use
         overflow="visible"
         xlink:href="#e"
         id="use4203" />
    </clipPath>
    <clipPath
       id="clipPath4209">
      <use
         overflow="visible"
         xlink:href="#e"
         id="use4207" />
    </clipPath>
    <clipPath
       id="clipPath4213">
      <use
         overflow="visible"
         xlink:href="#e"
         id="use4211" />
    </clipPath>
    <clipPath
       id="clipPath4217">
      <use
         overflow="visible"
         xlink:href="#e"
         id="use4215" />
    </clipPath>
    <clipPath
       id="clipPath4221">
      <use
         overflow="visible"
         xlink:href="#e"
         id="use4219" />
    </clipPath>
    <clipPath
       id="clipPath4225">
      <use
         overflow="visible"
         xlink:href="#e"
         id="use4223" />
    </clipPath>
    <clipPath
       id="clipPath4229">
      <use
         overflow="visible"
         xlink:href="#e"
         id="use4227" />
    </clipPath>
    <clipPath
       id="clipPath4233">
      <use
         overflow="visible"
         xlink:href="#e"
         id="use4231" />
    </clipPath>
    <clipPath
       id="clipPath4237">
      <use
         overflow="visible"
         xlink:href="#e"
         id="use4235" />
    </clipPath>
    <clipPath
       id="clipPath4241">
      <use
         overflow="visible"
         xlink:href="#e"
         id="use4239" />
    </clipPath>
    <clipPath
       id="clipPath4245">
      <use
         overflow="visible"
         xlink:href="#e"
         id="use4243" />
    </clipPath>
    <clipPath
       id="a-44">
      <use
         overflow="visible"
         xlink:href="#e"
         id="use12-3" />
    </clipPath>
    <clipPath
       id="clipPath4117-5">
      <use
         overflow="visible"
         xlink:href="#e"
         id="use4115-9" />
    </clipPath>
    <clipPath
       id="clipPath4121-3">
      <use
         overflow="visible"
         xlink:href="#e"
         id="use4119-4" />
    </clipPath>
    <clipPath
       id="clipPath4125-3">
      <use
         overflow="visible"
         xlink:href="#e"
         id="use4123-0" />
    </clipPath>
    <clipPath
       id="clipPath4129-4">
      <use
         overflow="visible"
         xlink:href="#e"
         id="use4127-7" />
    </clipPath>
    <clipPath
       id="clipPath4133-9">
      <use
         overflow="visible"
         xlink:href="#e"
         id="use4131-9" />
    </clipPath>
    <clipPath
       id="clipPath4137-1">
      <use
         overflow="visible"
         xlink:href="#e"
         id="use4135-1" />
    </clipPath>
    <clipPath
       id="clipPath4141-9">
      <use
         overflow="visible"
         xlink:href="#e"
         id="use4139-7" />
    </clipPath>
    <clipPath
       id="clipPath4145-5">
      <use
         overflow="visible"
         xlink:href="#e"
         id="use4143-1" />
    </clipPath>
    <clipPath
       id="clipPath4149-8">
      <use
         overflow="visible"
         xlink:href="#e"
         id="use4147-5" />
    </clipPath>
    <clipPath
       id="clipPath4153-6">
      <use
         overflow="visible"
         xlink:href="#e"
         id="use4151-7" />
    </clipPath>
    <clipPath
       id="clipPath4157-1">
      <use
         overflow="visible"
         xlink:href="#e"
         id="use4155-0" />
    </clipPath>
    <clipPath
       id="clipPath4161-6">
      <use
         overflow="visible"
         xlink:href="#e"
         id="use4159-6" />
    </clipPath>
    <clipPath
       id="clipPath4165-5">
      <use
         overflow="visible"
         xlink:href="#e"
         id="use4163-2" />
    </clipPath>
    <clipPath
       id="clipPath4169-6">
      <use
         overflow="visible"
         xlink:href="#e"
         id="use4167-0" />
    </clipPath>
    <clipPath
       id="clipPath4173-1">
      <use
         overflow="visible"
         xlink:href="#e"
         id="use4171-9" />
    </clipPath>
    <clipPath
       id="clipPath4177-5">
      <use
         overflow="visible"
         xlink:href="#e"
         id="use4175-0" />
    </clipPath>
    <clipPath
       id="clipPath4181-8">
      <use
         overflow="visible"
         xlink:href="#e"
         id="use4179-6" />
    </clipPath>
    <clipPath
       id="clipPath4185-8">
      <use
         overflow="visible"
         xlink:href="#e"
         id="use4183-4" />
    </clipPath>
    <clipPath
       id="clipPath4189-6">
      <use
         overflow="visible"
         xlink:href="#e"
         id="use4187-1" />
    </clipPath>
    <clipPath
       id="clipPath4193-9">
      <use
         overflow="visible"
         xlink:href="#e"
         id="use4191-4" />
    </clipPath>
    <clipPath
       id="clipPath4197-4">
      <use
         overflow="visible"
         xlink:href="#e"
         id="use4195-1" />
    </clipPath>
    <clipPath
       id="clipPath4201-1">
      <use
         overflow="visible"
         xlink:href="#e"
         id="use4199-6" />
    </clipPath>
    <clipPath
       id="clipPath4205-4">
      <use
         overflow="visible"
         xlink:href="#e"
         id="use4203-5" />
    </clipPath>
    <clipPath
       id="clipPath4209-3">
      <use
         overflow="visible"
         xlink:href="#e"
         id="use4207-0" />
    </clipPath>
    <clipPath
       id="clipPath4213-0">
      <use
         overflow="visible"
         xlink:href="#e"
         id="use4211-2" />
    </clipPath>
    <clipPath
       id="clipPath4217-4">
      <use
         overflow="visible"
         xlink:href="#e"
         id="use4215-2" />
    </clipPath>
    <clipPath
       id="clipPath4221-3">
      <use
         overflow="visible"
         xlink:href="#e"
         id="use4219-6" />
    </clipPath>
    <clipPath
       id="clipPath4225-9">
      <use
         overflow="visible"
         xlink:href="#e"
         id="use4223-0" />
    </clipPath>
    <clipPath
       id="clipPath4229-8">
      <use
         overflow="visible"
         xlink:href="#e"
         id="use4227-6" />
    </clipPath>
    <clipPath
       id="clipPath4233-6">
      <use
         overflow="visible"
         xlink:href="#e"
         id="use4231-2" />
    </clipPath>
    <clipPath
       id="clipPath4237-1">
      <use
         overflow="visible"
         xlink:href="#e"
         id="use4235-9" />
    </clipPath>
    <clipPath
       id="clipPath4241-7">
      <use
         overflow="visible"
         xlink:href="#e"
         id="use4239-3" />
    </clipPath>
    <clipPath
       id="clipPath4245-0">
      <use
         overflow="visible"
         xlink:href="#e"
         id="use4243-4" />
    </clipPath>
    <rect
       height="364.36"
       width="375.5"
       y="48.715"
       x="110"
       id="e" />
    <clipPath
       id="a-95">
      <use
         overflow="visible"
         xlink:href="#e"
         id="use12-8" />
    </clipPath>
    <clipPath
       id="clipPath4293">
      <use
         overflow="visible"
         xlink:href="#e"
         id="use4291" />
    </clipPath>
    <clipPath
       id="clipPath4297">
      <use
         overflow="visible"
         xlink:href="#e"
         id="use4295" />
    </clipPath>
    <clipPath
       id="clipPath4301">
      <use
         overflow="visible"
         xlink:href="#e"
         id="use4299" />
    </clipPath>
    <clipPath
       id="clipPath4305">
      <use
         overflow="visible"
         xlink:href="#e"
         id="use4303" />
    </clipPath>
    <clipPath
       id="clipPath4309">
      <use
         overflow="visible"
         xlink:href="#e"
         id="use4307" />
    </clipPath>
    <clipPath
       id="clipPath4313">
      <use
         overflow="visible"
         xlink:href="#e"
         id="use4311" />
    </clipPath>
    <clipPath
       id="clipPath4317">
      <use
         overflow="visible"
         xlink:href="#e"
         id="use4315" />
    </clipPath>
    <clipPath
       id="clipPath4321">
      <use
         overflow="visible"
         xlink:href="#e"
         id="use4319" />
    </clipPath>
    <clipPath
       id="clipPath4325">
      <use
         overflow="visible"
         xlink:href="#e"
         id="use4323" />
    </clipPath>
    <clipPath
       id="clipPath4329">
      <use
         overflow="visible"
         xlink:href="#e"
         id="use4327" />
    </clipPath>
    <clipPath
       id="clipPath4333">
      <use
         overflow="visible"
         xlink:href="#e"
         id="use4331" />
    </clipPath>
    <clipPath
       id="clipPath4337">
      <use
         overflow="visible"
         xlink:href="#e"
         id="use4335" />
    </clipPath>
    <clipPath
       id="clipPath4341">
      <use
         overflow="visible"
         xlink:href="#e"
         id="use4339" />
    </clipPath>
    <clipPath
       id="clipPath4345">
      <use
         overflow="visible"
         xlink:href="#e"
         id="use4343" />
    </clipPath>
    <clipPath
       id="clipPath4349">
      <use
         overflow="visible"
         xlink:href="#e"
         id="use4347" />
    </clipPath>
    <clipPath
       id="clipPath4353">
      <use
         overflow="visible"
         xlink:href="#e"
         id="use4351" />
    </clipPath>
    <clipPath
       id="clipPath4357">
      <use
         overflow="visible"
         xlink:href="#e"
         id="use4355" />
    </clipPath>
    <clipPath
       id="clipPath4361">
      <use
         overflow="visible"
         xlink:href="#e"
         id="use4359" />
    </clipPath>
    <clipPath
       id="clipPath4365">
      <use
         overflow="visible"
         xlink:href="#e"
         id="use4363" />
    </clipPath>
    <clipPath
       id="clipPath4369">
      <use
         overflow="visible"
         xlink:href="#e"
         id="use4367" />
    </clipPath>
    <clipPath
       id="clipPath4373">
      <use
         overflow="visible"
         xlink:href="#e"
         id="use4371" />
    </clipPath>
    <clipPath
       id="clipPath4377">
      <use
         overflow="visible"
         xlink:href="#e"
         id="use4375" />
    </clipPath>
    <clipPath
       id="clipPath4381">
      <use
         overflow="visible"
         xlink:href="#e"
         id="use4379" />
    </clipPath>
    <clipPath
       id="clipPath4385">
      <use
         overflow="visible"
         xlink:href="#e"
         id="use4383" />
    </clipPath>
    <clipPath
       id="clipPath4389">
      <use
         overflow="visible"
         xlink:href="#e"
         id="use4387" />
    </clipPath>
    <clipPath
       id="clipPath4393">
      <use
         overflow="visible"
         xlink:href="#e"
         id="use4391" />
    </clipPath>
    <clipPath
       id="clipPath4397">
      <use
         overflow="visible"
         xlink:href="#e"
         id="use4395" />
    </clipPath>
    <clipPath
       id="clipPath4401">
      <use
         overflow="visible"
         xlink:href="#e"
         id="use4399" />
    </clipPath>
    <clipPath
       id="clipPath4405">
      <use
         overflow="visible"
         xlink:href="#e"
         id="use4403" />
    </clipPath>
    <clipPath
       id="clipPath4409">
      <use
         overflow="visible"
         xlink:href="#e"
         id="use4407" />
    </clipPath>
    <clipPath
       id="clipPath4413">
      <use
         overflow="visible"
         xlink:href="#e"
         id="use4411" />
    </clipPath>
    <clipPath
       id="clipPath4417">
      <use
         overflow="visible"
         xlink:href="#e"
         id="use4415" />
    </clipPath>
    <clipPath
       id="clipPath4421">
      <use
         overflow="visible"
         xlink:href="#e"
         id="use4419" />
    </clipPath>
    <clipPath
       clipPathUnits="userSpaceOnUse"
       id="clipPath18-9">
      <path
         d="M 0,788.682 H 606.392 V 0 H 0 Z"
         id="path16-1"
         inkscape:connector-curvature="0" />
    </clipPath>
    <clipPath
       clipPathUnits="userSpaceOnUse"
       id="clipPath18-3">
      <path
         d="M 0,841.89 H 595.28 V 0 H 0 Z"
         id="path16-2"
         inkscape:connector-curvature="0" />
    </clipPath>
    <clipPath
       clipPathUnits="userSpaceOnUse"
       id="clipPath26">
      <path
         d="M 49,724.392 H 539.375 V 115.689 H 49 Z"
         id="path24"
         inkscape:connector-curvature="0" />
    </clipPath>
  </defs>
  <sodipodi:namedview
     id="base"
     pagecolor="#ffffff"
     bordercolor="#666666"
     borderopacity="1.0"
     inkscape:pageopacity="0.0"
     inkscape:pageshadow="2"
     inkscape:zoom="0.604556"
     inkscape:cx="164.36876"
     inkscape:cy="688.74865"
     inkscape:document-units="mm"
     inkscape:current-layer="g11993"
     showgrid="false"
     showguides="true"
     inkscape:guide-bbox="true"
     inkscape:window-width="1920"
     inkscape:window-height="1001"
     inkscape:window-x="-9"
     inkscape:window-y="-9"
     inkscape:window-maximized="1"
     inkscape:snap-global="false">
    <sodipodi:guide
       position="72.922013,252.88982"
       orientation="0,1"
       id="guide4178"
       inkscape:locked="false" />
    <sodipodi:guide
       position="99.099147,43.94019"
       orientation="0,1"
       id="guide4180"
       inkscape:locked="false" />
  </sodipodi:namedview>
  <metadata
     id="metadata3628">
    <rdf:RDF>
      <cc:Work
         rdf:about="">
        <dc:format>image/svg+xml</dc:format>
        <dc:type
           rdf:resource="http://purl.org/dc/dcmitype/StillImage" />
        <dc:title></dc:title>
      </cc:Work>
    </rdf:RDF>
  </metadata>
  <g
     inkscape:label="Layer 1"
     inkscape:groupmode="layer"
     id="layer1">
    <g
       id="g11993"
       transform="translate(-1.9003895,-26.68405)">
      <path
         style="fill:#000000;fill-opacity:1;fill-rule:nonzero;stroke:none;stroke-width:0.20687103"
         d="m 92.385512,167.44361 c -1.150315,-0.0137 -2.413317,0.34462 -2.699059,1.39681 -0.0239,0.11854 -0.03191,0.23679 -0.02791,0.3545 -3.129333,-1.04718 -6.827774,-0.8659 -9.82989,0.70177 -1.118137,0.58379 -2.061321,1.35486 -2.769856,2.25102 -0.30203,0.097 -0.604584,0.19486 -0.905373,0.29456 -0.02545,-0.22652 -0.08901,-0.44642 -0.193267,-0.65371 -0.251347,-0.49938 -0.701585,-0.92546 -1.186493,-1.24695 -0.489664,-0.32458 -1.057137,-0.54756 -1.645893,-0.67644 -1.220123,-0.26812 -2.539286,-0.13369 -3.692798,0.29972 -1.09393,0.41021 -2.09733,1.12082 -2.631881,2.09289 -0.278654,0.50683 -0.411361,1.06668 -0.386541,1.63143 0.02461,0.56352 0.199454,1.11829 0.477491,1.62161 -0.133022,0.038 -0.2652,0.0757 -0.398425,0.11317 -1.257573,0.35333 -2.531219,0.65922 -3.822507,0.89297 -1.297078,0.23604 -2.609019,0.40662 -3.927406,0.51004 -0.02628,0.002 -0.05301,0.004 -0.07907,0.006 -0.01489,-0.007 -0.02946,-0.0142 -0.04393,-0.0212 -0.0298,-0.0144 -0.05889,-0.0288 -0.08785,-0.0439 -0.05772,-0.0309 -0.114576,-0.0622 -0.170016,-0.0951 -0.11502,-0.0676 -0.226362,-0.14106 -0.331245,-0.22066 -0.204182,-0.15453 -0.38839,-0.33274 -0.531752,-0.53588 -0.259826,-0.36802 -0.37188,-0.81045 -0.354499,-1.24489 0.01965,-0.50332 0.217688,-1.00552 0.572058,-1.3963 0.366368,-0.40401 0.914201,-0.68839 1.500682,-0.69039 1.333079,-0.006 1.872261,1.29063 2.229321,2.2412 0.166944,0.44477 0.327602,0.89107 0.491445,1.33687 -0.0012,-0.0786 -0.0028,-0.15672 -0.0041,-0.23512 -0.0047,-0.26645 -0.0091,-0.53246 -0.01499,-0.79892 -0.0072,-0.41332 0.03918,-0.82309 0.159162,-1.22215 0.153498,-0.50621 0.414031,-0.99982 0.798402,-1.39681 0.190735,-0.19612 0.413213,-0.36671 0.662493,-0.49971 0.267271,-0.14235 0.560334,-0.22792 0.865063,-0.27802 -0.217012,0.0103 -0.433084,0.0469 -0.63872,0.10903 -1.147514,0.34465 -1.835648,1.40045 -2.100649,2.41123 -0.06041,-0.16944 -0.124174,-0.33773 -0.197403,-0.50282 -0.220737,-0.494 -0.53457,-0.98087 -1.018027,-1.30069 -0.48677,-0.3217 -1.108607,-0.43913 -1.699635,-0.34313 -0.943126,0.15308 -1.663801,0.79912 -2.021068,1.57819 -0.719704,0.12167 -1.194041,0.13958 -1.197343,0.14005 -0.502904,0.0331 -0.993957,0.0499 -1.494999,0.0625 -1.277842,-0.0107 -2.656554,-0.0239 -4.11086,-0.0403 0.33782,-0.0247 0.696185,-0.0557 1.084689,-0.0925 2.435285,0.16115 3.680057,-0.86112 3.973401,-2.82929 -0.01531,-5.8e-4 -0.02912,5.9e-4 -0.04444,0 6e-4,-0.006 0.0018,-0.0105 0.0026,-0.0165 -2.421218,-0.14502 -2.836646,1.71299 -4.103108,2.72334 -0.144193,0.012 -0.282874,0.024 -0.417547,0.0351 -0.844447,-0.73606 -1.25104,-1.86522 -2.214851,-2.49494 -0.444982,-0.30431 -1.009851,-0.50216 -1.799892,-0.49816 0.09992,1.08587 0.502939,1.90181 1.247471,2.41277 0.519036,0.37113 1.213795,0.5863 2.092378,0.6351 -0.796454,0.0616 -1.433904,0.0988 -1.968873,0.10077 -0.11833,-0.002 -0.235963,-0.003 -0.355534,-0.005 -0.776594,-0.0238 -1.333315,-0.14149 -1.900142,-0.39015 1.03084,-0.46525 0.885423,-0.86796 0.372589,-1.26039 -0.372989,-0.29997 -0.971555,-0.593 -1.440741,-0.90124 -0.03558,-0.0231 -0.06839,-0.0485 -0.100251,-0.0739 -0.4733,-0.41726 -0.464055,-1.04903 -0.464055,-1.04903 -0.0122,0.0168 -0.02355,0.0337 -0.03617,0.0501 -0.0043,-0.0547 -0.0031,-0.0889 -0.0031,-0.0889 -0.836996,1.12 -1.208913,2.45009 -0.438732,3.08146 0.331618,0.30057 0.897752,0.45957 1.76475,0.38757 0.297063,0.0908 0.614243,0.16873 0.979786,0.22893 -0.956572,-0.0124 -1.934077,-0.026 -2.925402,-0.0398 -0.09702,-0.4096 -0.46567,-0.71193 -0.903822,-0.70693 -0.420778,0.004 -0.768242,0.29239 -0.873332,0.68006 -0.135705,-0.002 -0.272227,-0.004 -0.40876,-0.006 -0.08254,-0.11683 -0.217022,-0.19488 -0.37052,-0.19688 -0.15205,-0.002 -0.286324,0.0714 -0.371554,0.18397 -0.579649,-0.009 -1.160804,-0.018 -1.744596,-0.0284 -3.875107,-0.0674 -11.048195,-0.18563 -18.186487,-0.43925 -0.549036,-0.0202 -1.098205,-0.0402 -1.645378,-0.0615 -0.0044,0.001 -0.0086,0.002 -0.01344,0.003 -2.576993,0.38539 -5.226501,0.55187 -7.879622,0.57257 -0.105504,-0.51532 -0.562112,-0.90382 -1.1094929,-0.90382 -0.624957,0 -1.1317138,0.50748 -1.1317138,1.13223 0,0.62559 0.5067568,1.13223 1.1317138,1.13223 0.5434509,0 0.9962349,-0.38324 1.1058759,-0.89297 2.6585,0.0205 5.31451,0.18831 7.896675,0.5762 0.547173,-0.0215 1.096341,-0.0415 1.645378,-0.061 7.138292,-0.25446 14.311377,-0.37237 18.186487,-0.43977 0.583792,-0.0102 1.164944,-0.0194 1.744596,-0.0294 0.08523,0.11312 0.219504,0.18596 0.371554,0.18397 0.153498,-0.001 0.287978,-0.0785 0.37052,-0.19534 0.136536,-0.002 0.273053,-0.003 0.40876,-0.006 0.104677,0.38788 0.452554,0.67557 0.873332,0.68057 0.438152,0.005 0.807212,-0.29805 0.903822,-0.70745 0.991325,-0.0143 1.968833,-0.0269 2.925402,-0.0393 -0.36554,0.0596 -0.68272,0.13784 -0.979786,0.22944 -0.86741,-0.072 -1.433444,0.0862 -1.765266,0.38758 -0.769353,0.63116 -0.397753,1.96064 0.439248,3.08043 0,0 -0.0012,-0.0337 0.0031,-0.0889 0.0126,0.0165 0.02397,0.0338 0.03617,0.0506 0,0 -0.0091,-0.63095 0.463021,-1.048 0.03165,-0.0261 0.0653,-0.0508 0.101285,-0.0744 0.470424,-0.30947 1.069819,-0.60231 1.442807,-0.90331 0.510765,-0.39139 0.654529,-0.79431 -0.374655,-1.25832 0.56724,-0.24949 1.12458,-0.36707 1.902209,-0.39067 0.120398,-0.002 0.239066,-0.003 0.358634,-0.004 0.533318,0.002 1.170043,0.0383 1.964222,0.0997 -0.877962,0.0499 -1.57189,0.26408 -2.091346,0.63459 -0.745358,0.51097 -1.149099,1.32679 -1.249019,2.41328 0.790041,0.004 1.35491,-0.19396 1.799892,-0.49764 0.963811,-0.63013 1.370404,-1.75982 2.214851,-2.49545 0.134673,0.012 0.273354,0.0236 0.417547,0.0362 1.266462,1.00995 1.68189,2.86775 4.103108,2.72335 -8.02e-4,-0.006 -0.0021,-0.0116 -0.0026,-0.0176 0.01531,-5.8e-4 0.02912,4.7e-4 0.04444,0 -0.293341,-1.96817 -1.538116,-2.99002 -3.973401,-2.82825 -0.388507,-0.0377 -0.746869,-0.0683 -1.084689,-0.0935 1.452854,-0.0157 2.829814,-0.0285 4.105177,-0.0403 0.503111,0.0128 0.996125,0.0288 1.500682,0.0625 0.0031,4.2e-4 0.392671,0.0161 1.000456,0.10904 -0.0035,0.0174 -0.01014,0.0343 -0.01344,0.0517 -0.08234,0.45925 -0.04291,0.92806 0.114723,1.37097 0.552347,1.23916 2.000115,1.81741 2.221053,1.91461 0.07116,0.0265 0.143089,0.0519 0.215489,0.0765 0.305753,0.10302 0.618935,0.18684 0.936895,0.25424 0.642747,0.13509 1.301099,0.20653 1.959571,0.23823 0.665091,0.0316 1.333341,0.0274 1.99781,-0.0165 1.124135,-0.0741 2.268056,-0.23721 3.321243,-0.61289 0.291478,-0.10406 0.575972,-0.2254 0.850077,-0.36277 0.140671,-0.071 0.278122,-0.14579 0.413412,-0.22479 0.02856,-0.0163 0.07432,0.0217 0.10387,0.0362 0.03247,0.016 0.06574,0.0308 0.09922,0.0465 0.06599,0.0306 0.13295,0.0596 0.201022,0.0873 0.578617,0.23376 1.206757,0.34982 1.838129,0.37362 1.307426,0.0499 2.601855,-0.23646 3.824058,-0.63304 0.347951,-0.11336 0.692192,-0.23636 1.031459,-0.36793 0.169217,1.7491 1.08209,3.4746 2.646868,4.65604 1.93548,1.46072 4.787913,1.95312 7.263122,1.22784 1.714135,-0.5025 3.140242,-1.53692 3.823539,-2.8913 0.255688,-0.0486 0.513866,-0.13003 0.768945,-0.25167 1.48327,-0.70316 2.324597,-1.79483 2.996718,-2.3089 1.375492,-1.18868 3.674039,-3.06274 6.460586,-3.32589 0.760666,-0.0823 2.189886,-0.19069 3.817336,0.45165 0.36327,0.1357 0.73589,0.31072 1.11053,0.5209 h -4.16564 c -0.17852,-0.01 -0.36953,-0.01 -0.569988,0 h -1.373045 c -0.16343,0 -0.304469,0.1021 -0.37207,0.25063 -0.757769,0.16653 -1.418794,0.39375 -1.850533,0.67592 -0.663022,0.43568 -0.638643,1.00288 0.166915,1.46193 0.561652,0.31631 1.519007,0.57581 2.774508,0.57981 -0.0284,0.0509 -0.05892,0.10175 -0.09302,0.15245 h 7.880143 7.88066 c -0.0348,-0.0511 -0.0647,-0.10187 -0.093,-0.15297 1.25654,-0.003 2.21553,-0.26257 2.7776,-0.57929 0.80494,-0.45905 0.82901,-1.02625 0.1664,-1.46193 -0.43236,-0.28237 -1.09441,-0.50961 -1.85363,-0.67696 -0.0678,-0.14792 -0.20885,-0.24959 -0.37104,-0.24959 h -1.36735 c -0.20293,-0.01 -0.39632,-0.01 -0.57671,0 h -4.16151 c 0.37422,-0.21018 0.74746,-0.3852 1.11053,-0.5209 1.62724,-0.64234 3.05605,-0.53395 3.8163,-0.45165 2.78677,0.26315 5.08625,2.13721 6.46111,3.32589 0.67192,0.51407 1.51293,1.60574 2.9962,2.3089 0.25445,0.12164 0.51336,0.20307 0.76842,0.25167 0.68249,1.35438 2.10972,2.3888 3.82303,2.8913 2.47438,0.72528 5.32721,0.23288 7.26209,-1.22784 1.55773,-1.17606 2.46833,-2.89094 2.64376,-4.63176 0.31857,0.12247 0.64167,0.23732 0.96687,0.34365 1.22261,0.39658 2.51683,0.68284 3.82406,0.63304 0.63137,-0.0238 1.26023,-0.13986 1.83864,-0.37362 0.0683,-0.0277 0.13443,-0.0567 0.20102,-0.0873 0.0337,-0.0157 0.0664,-0.0305 0.0997,-0.0465 0.0283,-0.0145 0.0748,-0.0526 0.10335,-0.0362 0.13448,0.079 0.27234,0.15379 0.41341,0.22479 0.27453,0.13737 0.55829,0.25871 0.84957,0.36277 1.05357,0.37568 2.19721,0.53879 3.32176,0.61289 0.66406,0.0439 1.332,0.0482 1.99729,0.0165 0.6589,-0.0317 1.31703,-0.10314 1.95957,-0.23823 0.31776,-0.0674 0.63165,-0.15122 0.93741,-0.25424 0.0716,-0.0246 0.14381,-0.05 0.21601,-0.0765 0.22032,-0.0972 1.6685,-0.67545 2.22105,-1.91461 0.15661,-0.44291 0.19702,-0.91172 0.11472,-1.37097 -0.003,-0.0172 -0.01,-0.0342 -0.0129,-0.0512 0.60529,-0.0927 0.99694,-0.1094 0.99994,-0.10956 0.50476,-0.0338 0.99725,-0.0497 1.50017,-0.0625 1.27597,0.0118 2.65295,0.0246 4.10518,0.0403 -0.33722,0.0252 -0.69631,0.0559 -1.08521,0.0935 -2.43488,-0.16177 -3.67964,0.86008 -3.9734,2.82825 0.0153,4.7e-4 0.0298,-5.8e-4 0.0455,0 -0.002,0.006 -0.002,0.0116 -0.004,0.0176 2.42163,0.14439 2.83716,-1.71393 4.10362,-2.72387 0.1446,-0.0126 0.28288,-0.0237 0.41755,-0.0357 0.84445,0.73564 1.25177,1.86532 2.21537,2.49545 0.44478,0.30369 1.00944,0.50165 1.79886,0.49764 -0.0989,-1.08649 -0.50285,-1.90231 -1.24799,-2.41328 -0.51925,-0.37051 -1.21431,-0.58479 -2.09186,-0.63459 0.79397,-0.0614 1.43069,-0.0977 1.96422,-0.0997 0.11977,10e-4 0.23812,0.003 0.35812,0.004 0.77803,0.0236 1.33497,0.14118 1.90221,0.39067 -1.02918,0.46401 -0.88552,0.86641 -0.37414,1.25781 0.37279,0.30099 0.97196,0.59434 1.44281,0.90382 0.036,0.0236 0.0693,0.0483 0.1018,0.0744 0.47178,0.41705 0.4625,1.048 0.4625,1.048 0.0122,-0.0168 0.0239,-0.0341 0.0362,-0.0506 0.004,0.0553 0.004,0.0889 0.004,0.0889 0.83658,-1.1198 1.20819,-2.44875 0.43925,-3.07992 -0.33121,-0.30137 -0.89788,-0.46009 -1.76526,-0.38809 -0.29708,-0.0917 -0.61385,-0.16984 -0.97979,-0.22944 0.95698,0.0124 1.93407,0.025 2.9254,0.0393 0.097,0.4094 0.46558,0.71297 0.90331,0.70797 0.42119,-0.005 0.76947,-0.29321 0.87436,-0.68109 0.1357,0.002 0.27275,0.004 0.40928,0.006 0.0819,0.1169 0.21629,0.19434 0.37,0.19534 0.15186,0.002 0.28606,-0.0708 0.37156,-0.18397 0.57903,0.01 1.1603,0.0194 1.74408,0.0294 3.87512,0.0674 11.04871,0.18532 18.187,0.43977 0.54943,0.0194 1.09768,0.0395 1.64486,0.061 2.58217,-0.38788 5.23777,-0.55569 7.89668,-0.5762 0.10919,0.50957 0.56245,0.89273 1.10587,0.89297 0.62532,-2.8e-4 1.13172,-0.50681 1.13172,-1.13223 0,-0.62475 -0.50667,-1.13223 -1.13223,-1.13223 -0.5474,0 -1.00305,0.3885 -1.10898,0.90382 -2.65312,-0.0207 -5.30316,-0.18718 -7.88014,-0.57257 -0.004,-0.002 -0.009,-0.002 -0.0129,-0.003 -0.54718,0.0213 -1.09594,0.0412 -1.64538,0.0615 -7.1383,0.25362 -14.31189,0.37185 -18.187,0.43925 -0.58378,0.0103 -1.16505,0.0194 -1.74408,0.0284 -0.0854,-0.11253 -0.2197,-0.18597 -0.37155,-0.18397 -0.15371,0.002 -0.28811,0.08 -0.37001,0.19688 -0.13653,0.002 -0.27326,0.004 -0.40979,0.006 -0.10467,-0.38767 -0.45213,-0.67606 -0.87333,-0.68006 -0.43773,-0.005 -0.80682,0.29733 -0.90382,0.70693 -0.99132,0.0138 -1.96791,0.0274 -2.92489,0.0398 0.36596,-0.0602 0.68272,-0.13813 0.97979,-0.22893 0.86698,0.072 1.43292,-0.087 1.76371,-0.38757 0.77038,-0.63137 0.3993,-1.96146 -0.4377,-3.08146 0,0 -1.3e-4,0.0343 -0.004,0.0889 -0.0122,-0.0163 -0.0234,-0.0333 -0.0357,-0.0501 0,0 0.01,0.63177 -0.46353,1.04903 -0.0323,0.0254 -0.0652,0.0507 -0.10077,0.0739 -0.46877,0.30824 -1.06849,0.60127 -1.44126,0.90124 -0.51262,0.39243 -0.65835,0.79514 0.37207,1.26039 -0.5662,0.24866 -1.12282,0.36635 -1.89859,0.39015 -0.12039,0.002 -0.23731,0.003 -0.35605,0.005 -0.53539,-0.002 -1.17306,-0.0391 -1.96887,-0.10077 0.87817,-0.0488 1.57303,-0.26397 2.09186,-0.6351 0.74474,-0.51096 1.14805,-1.3269 1.24695,-2.41277 -0.78942,-0.004 -1.35408,0.19385 -1.79886,0.49816 -0.96359,0.62972 -1.3704,1.75888 -2.21485,2.49494 -0.13467,-0.0112 -0.27295,-0.0231 -0.41755,-0.0351 -1.26646,-1.01035 -1.6825,-2.86836 -4.10414,-2.72334 0.002,0.006 0.002,0.0105 0.004,0.0165 -0.0157,5.9e-4 -0.0296,-5.8e-4 -0.045,0 0.29376,1.96817 1.53852,2.99044 3.9734,2.82929 0.38891,0.0368 0.74748,0.0679 1.08469,0.0925 -1.45389,0.0163 -2.83249,0.0296 -4.11034,0.0403 -0.50105,-0.0127 -0.99189,-0.0294 -1.495,-0.0625 -0.003,-4.1e-4 -0.47785,-0.0189 -1.19735,-0.14056 -0.35747,-0.77907 -1.07948,-1.4246 -2.02261,-1.57768 -0.59041,-0.096 -1.21184,0.0215 -1.69861,0.34313 -0.48366,0.31982 -0.79761,0.80669 -1.01751,1.30069 -0.0734,0.16509 -0.13803,0.33338 -0.19843,0.50282 -0.26397,-1.01078 -0.95241,-2.06658 -2.10013,-2.41123 -0.20564,-0.062 -0.42172,-0.0986 -0.63872,-0.10903 0.30472,0.0501 0.59851,0.13567 0.86454,0.27802 0.24949,0.133 0.47269,0.30359 0.66301,0.49971 0.38395,0.39699 0.6449,0.8906 0.7984,1.39681 0.11998,0.39906 0.16616,0.80883 0.15917,1.22215 -0.006,0.26646 -0.01,0.53247 -0.015,0.79892 -0.001,0.0784 -0.003,0.15652 -0.004,0.23512 0.16426,-0.4458 0.32439,-0.8921 0.49196,-1.33687 0.3556,-0.95057 0.89531,-2.2472 2.22777,-2.2412 0.5871,0.002 1.13556,0.28638 1.50069,0.69039 0.3554,0.39078 0.55234,0.89298 0.57154,1.3963 0.0182,0.43444 -0.0946,0.87687 -0.35295,1.24489 -0.1446,0.20314 -0.32819,0.38135 -0.53279,0.53588 -0.10446,0.0796 -0.21466,0.15306 -0.32969,0.22066 -0.0565,0.0329 -0.11303,0.0643 -0.17054,0.0951 -0.0289,0.015 -0.0587,0.0294 -0.0878,0.0439 -0.0141,0.007 -0.0294,0.0142 -0.0439,0.0212 -0.0273,-0.002 -0.053,-0.004 -0.0791,-0.006 -1.31839,-0.10342 -2.63002,-0.274 -3.92793,-0.51004 -1.2917,-0.23375 -2.56483,-0.53964 -3.82199,-0.89297 -0.13364,-0.0375 -0.26633,-0.0751 -0.39894,-0.11317 0.27783,-0.50332 0.45281,-1.05809 0.47801,-1.62161 0.024,-0.56475 -0.10872,-1.1246 -0.38758,-1.63143 -0.53393,-0.97207 -1.53753,-1.68268 -2.63084,-2.09289 -1.15352,-0.43341 -2.4736,-0.56784 -3.69332,-0.29972 -0.58917,0.12888 -1.15551,0.35186 -1.64538,0.67644 -0.48511,0.32149 -0.93524,0.74757 -1.18597,1.24695 -0.10425,0.20729 -0.1687,0.42719 -0.1943,0.65371 -0.271,-0.0898 -0.543,-0.17812 -0.81442,-0.26562 -0.71082,-0.90878 -1.66288,-1.68955 -2.79363,-2.27996 -3.00088,-1.56767 -6.69921,-1.74895 -9.82731,-0.70177 0.004,-0.11771 -0.003,-0.23596 -0.0284,-0.3545 -0.35148,-1.29494 -2.18428,-1.53951 -3.46336,-1.33222 -0.80577,0.15722 -1.5201,0.57035 -1.91357,1.17254 -0.68578,0.9332 0.68486,1.89744 2.03656,1.40405 0.77576,-0.29313 1.07958,-0.94133 0.49041,-1.20613 -0.0648,-0.0368 -0.14806,-0.065 -0.23926,-0.078 -0.29913,-0.0418 -0.61846,0.0767 -0.74052,0.28009 -0.12205,0.20335 0.0146,0.42352 0.33279,0.47852 0.0619,0.0108 0.12616,0.0148 0.18966,0.0109 -0.10384,0.34136 -0.82794,0.45849 -1.24644,0.36329 -1.18114,-0.28073 -0.92606,-1.36766 -5.1e-4,-1.90221 1.17522,-0.72343 2.65502,-0.31279 3.42769,0.38706 0.24824,0.27638 0.42556,0.62234 0.37466,1.06815 -1.41604,0.58709 -2.68091,1.44162 -3.66851,2.5461 -0.0683,0.0736 -0.14298,0.15793 -0.21498,0.24443 1.03808,-1.06497 2.35075,-1.89268 3.80339,-2.45102 -0.01,0.0278 -0.0194,0.055 -0.0295,0.0832 -0.26852,0.64316 -1.00355,1.47243 -2.69389,2.17558 -1.9719,0.78134 -4.06633,1.04237 -6.49728,0.99477 -2.19655,-0.0376 -4.26342,-0.22226 -5.41465,0.37104 -0.56873,0.28961 -0.75465,0.77687 -0.54881,1.3379 h -1.15238 -0.0713 -0.0103 -0.0103 -0.0713 -1.15135 c 0.20563,-0.56061 0.0215,-1.04849 -0.54674,-1.3379 -1.15102,-0.5933 -3.21882,-0.40864 -5.415174,-0.37104 -2.43114,0.0476 -4.525478,-0.21343 -6.496762,-0.99477 -1.69096,-0.70315 -2.425792,-1.53242 -2.693892,-2.17558 -0.01121,-0.0282 -0.01997,-0.0555 -0.02997,-0.0832 1.452851,0.55834 2.765621,1.38605 3.803904,2.45102 -0.07178,-0.0865 -0.14636,-0.17084 -0.214458,-0.24443 -0.988441,-1.10448 -2.253501,-1.95901 -3.669543,-2.5461 -0.05151,-0.44581 0.126309,-0.79177 0.375171,-1.06815 0.771837,-0.69985 2.252467,-1.11049 3.427695,-0.38706 0.925793,0.53455 1.180823,1.62148 0,1.90221 -0.418697,0.0952 -1.143206,-0.0219 -1.247468,-0.36329 0.06392,0.004 0.127871,-1.5e-4 0.19017,-0.0109 0.318161,-0.055 0.454742,-0.27517 0.333314,-0.47852 -0.122669,-0.20331 -0.442018,-0.32189 -0.741558,-0.28009 -0.09144,0.013 -0.174244,0.0412 -0.238745,0.078 -0.589989,0.2648 -0.285773,0.913 0.490408,1.20613 1.352309,0.49339 2.722968,-0.47085 2.03657,-1.40405 -0.392851,-0.60219 -1.108028,-1.01532 -1.913578,-1.17254 -0.240022,-0.0389 -0.499354,-0.0614 -0.764813,-0.0646 z m -6.214091,1.55132 c 1.207937,0.0182 2.407065,0.20743 3.539836,0.55398 0.225291,0.85128 1.126901,1.64659 2.231388,2.18798 1.975413,0.97663 4.164552,1.3805 6.696233,1.4366 0.78694,0.0135 1.511152,-0.0111 2.243272,-0.002 1.13634,0.0137 2.10002,0.10542 2.87683,0.37621 0.66053,0.22756 1.04302,0.58744 0.99942,1.13378 -0.67709,-0.44912 -1.41216,-0.80303 -2.25413,-1.08211 -2.27992,-0.65805 -5.380335,-0.74878 -8.748814,2.09238 -0.81838,0.67358 -1.903153,2.36904 -3.051495,3.17397 -0.362016,0.25569 -0.778113,0.45547 -1.198893,0.57567 0.147304,-0.34981 0.246271,-0.7182 0.288872,-1.10277 0.14129,-1.28178 -0.370136,-2.60426 -1.382345,-3.54242 0.330171,-0.31237 0.706387,-0.60412 1.121378,-0.84491 1.384792,-0.85542 3.205557,-1.1235 4.414719,-0.52917 0.1281,0.0599 0.166502,0.0168 0.03617,-0.0403 -2.065199,-0.94106 -4.613491,-0.65091 -5.988782,0.50384 -0.13012,0.10716 -0.250016,0.21654 -0.362768,0.32763 -0.48573,-0.28983 -1.04295,-0.50603 -1.66398,-0.62063 -2.431561,-0.44891 -5.24854,0.91506 -5.16041,3.13417 0.02441,0.61896 0.298519,1.226 0.768946,1.70739 -0.668814,-0.79046 -0.791028,-1.8676 -0.317294,-2.74867 0.500629,-0.93051 1.604013,-1.54313 2.799313,-1.71566 1.219713,-0.17604 2.330122,0.10777 3.191536,0.66818 -1.369282,1.71951 -0.903118,3.70699 -0.107487,4.44986 0.335963,0.33803 0.790345,0.55874 1.297596,0.63614 -0.760251,1.15123 -2.162606,1.98196 -3.783232,2.28978 -2.617123,0.49732 -5.294318,-0.44533 -6.765996,-2.28048 -1.368867,-1.70586 -1.69872,-3.88577 -0.906405,-5.82394 0.758804,-1.85481 2.489005,-3.27573 4.60592,-4.10569 1.459799,-0.57263 3.027542,-0.83209 4.580599,-0.80874 z m 41.525629,5.2e-4 c 1.55273,-0.0233 3.12028,0.2361 4.58009,0.80874 2.11628,0.82997 3.84618,2.25089 4.6054,4.10569 v 5.2e-4 c 0.79252,1.93817 0.46277,4.11807 -0.90589,5.82393 -1.47147,1.83515 -4.14918,2.7778 -6.76548,2.28048 -1.62021,-0.30782 -3.02287,-1.13854 -3.78271,-2.28978 0.50704,-0.0774 0.96215,-0.29862 1.29811,-0.63665 0.79501,-0.74287 1.26128,-2.72983 -0.108,-4.44935 0.8614,-0.5604 1.97131,-0.84421 3.19102,-0.66817 1.19549,0.17254 2.29806,0.78515 2.79827,1.71565 0.47373,0.88107 0.35163,1.95821 -0.31677,2.74868 0.47022,-0.48139 0.74494,-1.08843 0.76894,-1.70739 0.0877,-2.21912 -2.72812,-3.5831 -5.15885,-3.13418 -0.62166,0.1146 -1.17867,0.3308 -1.66399,0.62063 -0.11254,-0.11109 -0.23254,-0.22047 -0.36328,-0.32762 -1.37507,-1.15475 -3.92287,-1.44542 -5.98827,-0.50437 -0.12951,0.0572 -0.0917,0.10083 0.0362,0.0408 1.20957,-0.59433 3.03086,-0.32626 4.41523,0.52917 0.41458,0.24078 0.79038,0.53254 1.12035,0.84491 -1.01161,0.93815 -1.52333,2.26063 -1.38183,3.54241 0.0426,0.38457 0.142,0.75296 0.28887,1.10278 -0.42057,-0.1202 -0.83645,-0.31999 -1.19889,-0.57568 -1.14814,-0.80493 -2.23301,-2.50039 -3.05098,-3.17396 -3.36848,-2.84117 -6.46817,-2.75044 -8.7483,-2.09238 -0.84238,0.27907 -1.57714,0.63298 -2.25465,1.0821 -0.0436,-0.54634 0.3393,-0.90623 1.00046,-1.13378 0.7766,-0.2708 1.73966,-0.3625 2.87683,-0.3762 0.7315,-0.009 1.4556,0.0153 2.24275,0.002 2.53127,-0.0561 4.7202,-0.46048 6.6952,-1.43712 1.10469,-0.54139 2.00652,-1.3367 2.23139,-2.18798 1.1325,-0.34654 2.33113,-0.5358 3.5388,-0.55397 z m -55.673601,1.3193 c 0.314656,0.001 0.628502,0.0281 0.936892,0.0822 0.599305,0.10467 1.184545,0.31846 1.673802,0.65215 0.457801,0.31216 0.903388,0.72295 1.056264,1.23765 0.01654,0.0554 0.02963,0.11208 0.03979,0.16899 l 5.19e-4,-5.2e-4 c 0.006,0.0286 0.01037,0.0576 0.01447,0.0863 0.0047,0.036 0.0043,0.0346 -0.03359,0.047 -0.110678,0.0376 -0.221914,0.0742 -0.332795,0.11214 -0.230042,0.078 -0.459732,0.1557 -0.689364,0.23409 -1.247638,0.42616 -2.490319,0.86431 -3.73879,1.28778 0.006,-0.27017 -0.0554,-0.53507 -0.176215,-0.78186 -0.122465,-0.25031 -0.326107,-0.47095 -0.555522,-0.64699 -0.220525,-0.1686 -0.492138,-0.31475 -0.786517,-0.32815 -0.297272,-0.0141 -0.574114,0.13613 -0.719335,0.36846 -0.15081,0.24141 -0.139597,0.53236 -0.08372,0.79633 0.05958,0.28072 0.169005,0.54993 0.264583,0.82217 -0.04923,-0.21991 -0.111498,-0.43762 -0.150378,-0.65939 -0.03776,-0.21369 -0.06011,-0.44126 -0.0026,-0.65371 0.04861,-0.18185 0.17131,-0.34434 0.359151,-0.42994 0.199009,-0.0883 0.422571,-0.0459 0.609782,0.047 0.259834,0.12723 0.474785,0.33665 0.629936,0.56069 0.124952,0.18102 0.197612,0.3843 0.226343,0.59531 0.01952,0.14212 0.01657,0.28505 -0.0072,0.42634 -0.006,0.032 -0.08337,0.0438 -0.116271,0.0548 -0.03744,0.0126 -0.07524,0.0258 -0.112654,0.0382 -0.0753,0.0254 -0.150106,0.0499 -0.225828,0.0754 -0.312999,0.10406 -0.62689,0.20766 -0.941543,0.30902 -0.313822,0.10116 -0.628547,0.19986 -0.944645,0.29766 -0.15722,0.0492 -0.315412,0.0974 -0.472839,0.14521 -0.02544,0.008 -0.05079,0.0157 -0.07648,0.0227 -0.0083,-0.0141 -0.01694,-0.0294 -0.02584,-0.0439 -0.01694,-0.0296 -0.03378,-0.0595 -0.05012,-0.0899 -0.03207,-0.06 -0.06302,-0.12072 -0.09199,-0.18242 -0.241628,-0.51593 -0.353849,-1.09292 -0.2589,-1.65003 0.178736,-1.05111 1.068287,-1.87731 2.064991,-2.37091 0.822777,-0.40725 1.772658,-0.63348 2.71663,-0.62994 z m 69.753361,5.2e-4 c 0.94377,-0.004 1.89391,0.22266 2.71715,0.62993 0.99588,0.4936 1.88532,1.31981 2.06447,2.37092 0.0939,0.5571 -0.0176,1.13409 -0.25941,1.65003 -0.0286,0.0617 -0.0598,0.12241 -0.0925,0.18241 -0.0153,0.0304 -0.0322,0.0603 -0.0496,0.0899 -0.009,0.0145 -0.0164,0.0298 -0.0264,0.0439 -0.0248,-0.007 -0.0499,-0.0147 -0.0749,-0.0227 -0.15785,-0.0478 -0.31603,-0.0954 -0.47284,-0.1447 -0.31651,-0.0978 -0.6307,-0.19701 -0.94516,-0.29817 -0.31443,-0.10137 -0.62844,-0.20496 -0.94206,-0.30902 -0.0749,-0.0254 -0.15013,-0.0499 -0.22583,-0.0754 -0.0376,-0.0125 -0.0751,-0.0256 -0.11214,-0.0382 -0.0337,-0.0109 -0.11127,-0.0227 -0.11627,-0.0548 -0.0241,-0.14129 -0.0278,-0.2842 -0.008,-0.42633 0.0288,-0.211 0.10181,-0.4143 0.22738,-0.59531 0.15474,-0.22405 0.36959,-0.43347 0.62942,-0.56069 0.18743,-0.0929 0.41066,-0.13533 0.60927,-0.047 0.18865,0.0856 0.31078,0.24811 0.36018,0.42995 0.0576,0.21246 0.036,0.44001 -0.002,0.65371 -0.0393,0.22176 -0.10166,0.43948 -0.14986,0.65939 0.0948,-0.27225 0.20447,-0.54145 0.26407,-0.82217 0.0563,-0.26396 0.0667,-0.55492 -0.0837,-0.79634 -0.14522,-0.23232 -0.42268,-0.38255 -0.71933,-0.36845 -0.29499,0.0134 -0.56569,0.15955 -0.786,0.32814 -0.22984,0.17605 -0.43336,0.39668 -0.55708,0.647 -0.12001,0.24679 -0.18118,0.51168 -0.17518,0.78186 -1.24908,-0.42347 -2.49125,-0.86163 -3.7393,-1.28778 -0.22943,-0.0784 -0.45923,-0.15609 -0.68885,-0.23409 -0.11068,-0.0378 -0.22213,-0.0745 -0.3328,-0.11214 -0.0375,-0.0125 -0.0376,-0.011 -0.0336,-0.047 0.004,-0.0288 0.008,-0.0577 0.0145,-0.0863 0.0101,-0.0569 0.0237,-0.11307 0.0398,-0.16847 0.15309,-0.5147 0.59805,-0.92548 1.05524,-1.23765 0.48987,-0.33368 1.07552,-0.54799 1.67483,-0.65267 0.30829,-0.0541 0.6223,-0.0805 0.93689,-0.0817 z m -65.352597,2.77967 c -0.367403,0.65931 -0.618577,1.36666 -0.733806,2.10375 -0.04341,0.27658 -0.06678,0.55623 -0.07028,0.83716 -0.812385,0.30473 -1.64614,0.5654 -2.500106,0.74621 -1.241846,0.26458 -2.635581,0.38093 -3.831291,-0.10439 0.460084,-0.34485 0.884959,-0.73655 1.203544,-1.19683 0.04303,-0.0612 0.08367,-0.12472 0.121957,-0.18862 0.01824,-0.03 0.03554,-0.06 0.05168,-0.0904 0.0081,-0.0153 0.0172,-0.0308 0.02481,-0.0455 0.019,-0.007 0.03761,-0.0136 0.05684,-0.0196 0.156183,-0.054 0.312621,-0.1085 0.468188,-0.1633 0.312169,-0.10902 0.623591,-0.21974 0.93431,-0.33124 0.619374,-0.2226 1.236641,-0.44662 1.854152,-0.67232 -0.05812,0.23667 -0.09997,0.47792 -0.09147,0.72037 0.0091,0.2406 0.07272,0.56799 0.388607,0.61599 0.293965,0.0453 0.562393,-0.15654 0.758095,-0.32866 0.420565,-0.3701 0.724553,-0.84442 0.914672,-1.34462 0.05068,-0.13281 0.09184,-0.26861 0.123508,-0.40618 0.0079,-0.0319 0.08296,-0.0449 0.116271,-0.0563 0.03703,-0.0132 0.07386,-0.0266 0.111104,-0.0398 0.0333,-0.012 0.06615,-0.0239 0.09922,-0.0357 z m 61.035037,0.03 c 0.005,0.002 0.0105,0.004 0.0165,0.006 0.0362,0.0132 0.074,0.0266 0.11162,0.0398 0.0323,0.0114 0.10824,0.0245 0.11524,0.0563 0.0317,0.13757 0.0729,0.27337 0.12299,0.40618 0.19033,0.50022 0.49441,0.97454 0.91519,1.34462 0.19549,0.17212 0.46424,0.37396 0.75861,0.32866 0.31551,-0.048 0.37861,-0.37487 0.38861,-0.61546 0.008,-0.24245 -0.0337,-0.48372 -0.092,-0.72037 0.61813,0.22569 1.23477,0.44919 1.85415,0.67179 0.31071,0.1115 0.62266,0.22224 0.93379,0.33125 0.15661,0.0548 0.31272,0.10981 0.4687,0.16381 0.0201,0.006 0.0372,0.0126 0.0563,0.0196 0.008,0.0147 0.0168,0.0297 0.0248,0.045 0.0165,0.0304 0.0336,0.0604 0.0522,0.0904 0.0374,0.0639 0.0783,0.12742 0.12092,0.18862 0.31858,0.46029 0.7443,0.85198 1.20458,1.19683 -1.1955,0.48533 -2.58965,0.36897 -3.83129,0.10438 -0.82976,-0.17584 -1.64103,-0.42661 -2.43293,-0.72037 -0.001,-0.28941 -0.026,-0.57812 -0.0703,-0.86299 -0.11315,-0.72612 -0.35988,-1.42328 -0.71778,-2.0743 z m -130.0070529,0.2289 c -0.462149,0 -0.8371582,0.375 -0.8371582,0.83716 0,0.46276 0.3750092,0.83768 0.8371582,0.83768 0.462978,0 0.8381918,-0.37492 0.8381918,-0.83768 0,-0.46216 -0.3752138,-0.83716 -0.8381918,-0.83716 z m 198.8958629,0 c -0.46256,0 -0.83819,0.375 -0.83819,0.83716 0,0.46276 0.37563,0.83768 0.83819,0.83768 0.46256,0 0.83768,-0.37492 0.83768,-0.83768 0,-0.46216 -0.37512,-0.83716 -0.83768,-0.83716 z m -130.650935,0.002 c -0.109021,0.46629 -0.327681,0.91716 -0.644403,1.29863 -0.146053,0.17667 -0.320937,0.38054 -0.551389,0.46974 -0.107987,0.0423 -0.238268,0.0482 -0.324527,-0.0346 -0.07963,-0.0765 -0.112025,-0.18823 -0.133327,-0.28939 -0.04446,-0.20232 -0.045,-0.41129 -0.02636,-0.6165 0.0052,-0.0528 0.01129,-0.10442 0.01809,-0.15762 0.0033,-0.0234 0.0063,-0.0469 0.0098,-0.0703 0.02463,-0.009 0.04978,-0.0184 0.07441,-0.0274 0.106336,-0.0383 0.211889,-0.077 0.318844,-0.11627 0.418494,-0.15226 0.838062,-0.30529 1.258837,-0.45631 z m 62.406525,5.2e-4 c 0.42076,0.15101 0.84024,0.30404 1.25936,0.4563 0.10551,0.0393 0.21168,0.078 0.31781,0.11627 0.024,0.009 0.0492,0.0184 0.0744,0.0274 0.003,0.0234 0.006,0.0469 0.009,0.0703 0.007,0.0532 0.0146,0.10482 0.0196,0.15762 v 5.1e-4 c 0.0186,0.20522 0.018,0.41366 -0.0264,0.61599 -0.0207,0.10115 -0.0541,0.21288 -0.13333,0.28938 -0.0869,0.0827 -0.21603,0.0768 -0.32504,0.0346 -0.22983,-0.0891 -0.40492,-0.29306 -0.55139,-0.46973 -0.3161,-0.38147 -0.53592,-0.83235 -0.64389,-1.29863 z m -22.25032,1.85828 c 0.53869,0.11626 1.02986,0.28304 1.37718,0.47336 0.28466,0.16157 0.48504,0.32728 0.59324,0.50953 0.24348,0.4001 -0.21199,0.91784 -1.23248,1.21698 -0.51614,0.1527 -1.18259,0.24613 -1.92753,0.23203 -0.25982,-0.55255 -0.17483,-1.11679 0.15038,-1.68982 h -7.88066 -7.880138 c 0.325609,0.57324 0.409376,1.13799 0.149346,1.69137 -0.74391,0.0136 -1.409318,-0.0811 -1.92443,-0.23358 -1.020908,-0.29914 -1.475457,-0.81688 -1.231967,-1.21698 0.107781,-0.18225 0.309007,-0.34796 0.593246,-0.50953 0.34692,-0.19011 0.837245,-0.35637 1.374077,-0.47284 -5.72e-4,0.008 -10e-4,0.0153 -10e-4,0.0233 0,0.24742 0.185235,0.44855 0.414446,0.44855 h 8.42532 0.0708 0.0103 0.0103 0.0713 8.42533 c 0.22879,1e-5 0.41496,-0.20113 0.41496,-0.44855 0,-0.008 -0.002,-0.0158 -0.002,-0.0238 z m -27.871164,0.0279 c 0.674187,0.69756 1.072499,1.60287 1.0635,2.54765 -0.0058,0.64316 -0.187851,1.24085 -0.504362,1.77457 -1.02422,-0.0513 -1.822018,-0.76482 -1.548743,-2.56832 0.08689,-0.46712 0.440983,-1.12377 0.989605,-1.7539 z m 37.905174,0 c 0.54925,0.63013 0.90282,1.28678 0.99012,1.7539 0.27369,1.8035 -0.52464,2.51702 -1.54822,2.56832 -0.31735,-0.53372 -0.49888,-1.13141 -0.50488,-1.77457 -0.009,-0.94478 0.389,-1.85009 1.06298,-2.54765 z m -55.87152,0.14418 c -0.343823,0.40297 -0.773748,0.7441 -1.2299,1.03973 -0.211423,-0.12868 -0.406143,-0.27985 -0.577225,-0.4501 0.606134,-0.18806 1.207611,-0.38669 1.807125,-0.58963 z m 73.76914,0 c 0.5991,0.20294 1.20048,0.40157 1.80764,0.58963 -0.17171,0.17025 -0.3657,0.32142 -0.57774,0.4501 -0.45636,-0.29563 -0.88649,-0.63676 -1.2299,-1.03973 z m -76.397405,0.8387 c 0.0081,0.009 0.01547,0.0184 0.02377,0.0284 0.03972,0.0465 0.08059,0.0914 0.122989,0.13591 0.15763,0.1661 0.333885,0.31801 0.522964,0.45475 -0.502073,0.24969 -1.038156,0.44141 -1.591116,0.57671 -0.575101,0.14149 -1.168755,0.22402 -1.760615,0.28112 -0.661154,0.0647 -1.327964,0.0901 -1.992643,0.0791 -0.657227,-0.0108 -1.316921,-0.0534 -1.965256,-0.15193 0.231283,-0.0276 0.462325,-0.0575 0.692981,-0.0889 1.271016,-0.17335 2.53084,-0.42008 3.771863,-0.72295 -0.258178,0.0642 -0.533697,0.13365 0.0956,-0.0217 0.205838,-0.0515 0.191275,-0.0482 0.09818,-0.0258 0.48119,-0.12145 0.959974,-0.25084 1.436605,-0.38655 0.131572,-0.0377 0.263446,-0.0757 0.394809,-0.1142 0.03145,-0.009 0.0621,-0.0179 0.09353,-0.0279 z m 79.026705,5.2e-4 0.0553,0.016 c 0.0312,0.01 0.0626,0.0189 0.0941,0.0279 0.13012,0.0385 0.26252,0.0766 0.39326,0.1142 0.47725,0.13571 0.95656,0.26511 1.43815,0.38654 -0.0939,-0.0223 -0.10816,-0.0257 0.0977,0.0258 0.62952,0.15533 0.35388,0.0858 0.0961,0.0217 1.24041,0.30286 2.49971,0.5496 3.77135,0.72296 0.22963,0.0315 0.46178,0.0614 0.69246,0.0889 -0.64834,0.0984 -1.30731,0.14123 -1.96474,0.15193 -0.66531,0.011 -1.3315,-0.0143 -1.99264,-0.0791 -0.59186,-0.0571 -1.18654,-0.13962 -1.76165,-0.28112 -0.55213,-0.13529 -1.08801,-0.327 -1.59008,-0.5767 0.18867,-0.13674 0.3643,-0.28864 0.52296,-0.45476 0.0418,-0.0445 0.0825,-0.0893 0.12196,-0.13591 0.009,-0.01 0.0168,-0.0194 0.0258,-0.0284 z m -45.87317,0.24133 c 0.33761,0 0.61133,0.20836 0.61133,0.46509 0,0.25796 -0.27372,0.46664 -0.61133,0.46664 -0.33803,0 -0.611852,-0.20868 -0.611852,-0.46664 0,-0.25673 0.273822,-0.46509 0.611852,-0.46509 z m 2.5554,0 c 0.33761,0 0.61133,0.20836 0.61133,0.46509 0,0.25796 -0.27372,0.46664 -0.61133,0.46664 -0.33761,0 -0.61133,-0.20868 -0.61133,-0.46664 0,-0.25673 0.27372,-0.46509 0.61133,-0.46509 z m 2.55591,0 c 0.33741,0 0.61082,0.20836 0.61082,0.46509 0,0.25796 -0.27341,0.46664 -0.61082,0.46664 -0.33761,0 -0.61081,-0.20868 -0.61081,-0.46664 0,-0.25673 0.2732,-0.46509 0.61081,-0.46509 z m 2.56367,0 c 0.33741,0 0.61082,0.20836 0.61082,0.46509 0,0.25796 -0.27341,0.46664 -0.61082,0.46664 -0.33739,0 -0.61133,-0.20868 -0.61133,-0.46664 0,-0.25673 0.27394,-0.46509 0.61133,-0.46509 z m 2.5554,0 c 0.33762,0 0.61133,0.20836 0.61133,0.46509 0,0.25796 -0.27371,0.46664 -0.61133,0.46664 -0.33741,0 -0.61082,-0.20868 -0.61082,-0.46664 0,-0.25673 0.27341,-0.46509 0.61082,-0.46509 z m 2.5554,0 c 0.33886,0 0.61185,0.20836 0.61185,0.46509 0,0.25796 -0.27299,0.46664 -0.61185,0.46664 -0.337,0 -0.61133,-0.20868 -0.61133,-0.46664 0,-0.25673 0.27433,-0.46509 0.61133,-0.46509 z"
         id="path26"
         inkscape:connector-curvature="0" />
    </g>
  </g>
</svg>
