<svg xmlns="http://www.w3.org/2000/svg" version="1.1" xmlns:xlink="http://www.w3.org/1999/xlink" xmlns:svgjs="http://svgjs.com/svgjs" width="16" height="16" x="0" y="0" viewBox="0 0 512 512" style="enable-background:new 0 0 512 512" xml:space="preserve" class=""><g><circle cx="256" cy="256" r="241" style="stroke-linecap: round; stroke-linejoin: round; stroke-miterlimit: 10;" fill="none" stroke="#E4C590" stroke-width="30px" stroke-linecap="round" stroke-linejoin="round" stroke-miterlimit="10" data-original="#000000" opacity="1" class=""></circle><path d="M426.411 85.589 376.5 135.5M135.5 376.5l-49.911 49.911M159.648 267.913s96.352 0 96.352 78.285v18.067h-18.067c-78.285 0-78.285-96.352-78.285-96.352z" style="stroke-linecap: round; stroke-linejoin: round; stroke-miterlimit: 10;" fill="none" stroke="#E4C590" stroke-width="30px" stroke-linecap="round" stroke-linejoin="round" stroke-miterlimit="10" data-original="#000000" opacity="1" class=""></path><path d="M159.648 187.58s96.352 0 96.352 78.285v18.067h-18.067c-78.285 0-78.285-96.352-78.285-96.352z" style="stroke-linecap: round; stroke-linejoin: round; stroke-miterlimit: 10;" fill="none" stroke="#E4C590" stroke-width="30px" stroke-linecap="round" stroke-linejoin="round" stroke-miterlimit="10" data-original="#000000" opacity="1" class=""></path><path d="M256 99.487s68.131 68.139 12.773 123.488L256 235.756l-12.773-12.781C187.869 167.625 256 99.487 256 99.487zM352.352 267.913s-96.352 0-96.352 78.285v18.067h18.067c78.285 0 78.285-96.352 78.285-96.352z" style="stroke-linecap: round; stroke-linejoin: round; stroke-miterlimit: 10;" fill="none" stroke="#E4C590" stroke-width="30px" stroke-linecap="round" stroke-linejoin="round" stroke-miterlimit="10" data-original="#000000" opacity="1" class=""></path><path d="M352.352 187.58S256 187.58 256 265.865v18.067h18.067c78.285 0 78.285-96.352 78.285-96.352zM256 412.513v-48.2" style="stroke-linecap: round; stroke-linejoin: round; stroke-miterlimit: 10;" fill="none" stroke="#E4C590" stroke-width="30px" stroke-linecap="round" stroke-linejoin="round" stroke-miterlimit="10" data-original="#000000" opacity="1" class=""></path></g></svg>